# xmcd CD database file
#
# Track frame offsets:
#	180
#	13397
#	31896
#	48431
#	63841
#	79483
#	95179
#	113582
#	129532
#	145095
#	161783
#	175976
#	189838
#	199754
#	213509
#
# Disc length: 3031 seconds
#
# Revision: 4
# Processed by: cddbd v1.5.1PL0 Copyright (c) Steve Scherf et al.
# Submitted via: CDex 1.51
#
DISCID=d60bd50f
DTITLE=劉珺兒 - 小調精品集
DYEAR=2000
DGENRE=New Age
TTITLE0=心花寄
TTITLE1=月西沉
TTITLE2=觸景暗斷腸
TTITLE3=玫瑰我愛你
TTITLE4=花殘夢斷
TTITLE5=睇花燈
TTITLE6=平湖秋月
TTITLE7=閨怨
TTITLE8=拍檔夫妻
TTITLE9=春花秋月
TTITLE10=夜怨
TTITLE11=春之戀
TTITLE12=青春易去
TTITLE13=鳥語花香
TTITLE14=卡啦OK
EXTD=YEAR: 2000
EXTT0=
EXTT1=
EXTT2=
EXTT3=
EXTT4=
EXTT5=
EXTT6=
EXTT7=
EXTT8=
EXTT9=
EXTT10=
EXTT11=
EXTT12=
EXTT13=
EXTT14=
PLAYORDER=
